# xmcd
#
# Track frame offsets: 
#        150
#        24792
#        41627
#        63594
#        81115
#        97512
#        112913
#        134157
#        149360
#        164423
#        185848
#        199898
#        222652
#
# Disc length: 3184 seconds
#
# Revision: 9
# Processed by: cddbd v1.5.2PL0 Copyright (c) Steve Scherf et al.
# Submitted via: ExactAudioCopyFreeDBPlugin 1.0
#
DISCID=bd0c6e0d
DTITLE=Emmylou Harris - 2011 - Hard bargain
DYEAR=2011
DGENRE=Country
TTITLE0=The Road
TTITLE1=Home Sweet Home
TTITLE2=My name Is Emmett Till
TTITLE3=Goodnight Old World
TTITLE4=New Orleans
TTITLE5=Big Black Dog
TTITLE6=Lonely Girl
TTITLE7=Hard Bargain
TTITLE8=Six White Cadillacs
TTITLE9=The Ship On His Arm
TTITLE10=Darlin' Kate
TTITLE11=Nobody
TTITLE12=Cross Yourself
EXTD=YEAR: 2011
EXTT0=
EXTT1=
EXTT2=
EXTT3=
EXTT4=
EXTT5=
EXTT6=
EXTT7=
EXTT8=
EXTT9=
EXTT10=
EXTT11=
EXTT12=
PLAYORDER=
